<svg xmlns="http://www.w3.org/2000/svg" viewBox="0 0 256 256" width="256" height="256"
     fill="none" stroke="#03a9f4" stroke-width="8"
     stroke-linecap="round" stroke-linejoin="round">

    <circle cx="128" cy="128" r="104" stroke-width="10"/>

    <g transform="translate(84, 84)">
        <circle cx="0" cy="-3" r="13"/>
        <line x1="-6" y1="12" x2="6" y2="12"/>
        <line x1="0" y1="-24" x2="0" y2="-20"/>
    </g>

    <g transform="translate(172, 84)">
        <line x1="0" y1="-18" x2="0" y2="6" stroke-width="9"/>
        <circle cx="0" cy="13" r="8"/>
    </g>

    <g transform="translate(84, 172)">
        <rect x="-16" y="-10" width="24" height="20" rx="4"/>
        <path d="M8 -4 L18 -10 v20 l-10 -6 z"/>
    </g>

    <g transform="translate(172, 172)">
        <path d="M0 -18 L14 -10 v9 c0 9 -6 14 -14 18 c-8 -4 -14 -9 -14 -18 v-9 z"/>
    </g>

</svg>